<svg width="428" height="449" viewBox="0 0 428 449" fill="none" xmlns="http://www.w3.org/2000/svg">
<path d="M123.703 145.751L112.342 136.931L125.66 131.502L123.703 145.751Z" fill="#2B3352"/>
<path d="M39.5326 68.3898L28.1718 59.5704L41.4901 54.1414L39.5326 68.3898Z" fill="#2B3352"/>
<path d="M260.741 48.4613L249.38 39.6419L262.698 34.2129L260.741 48.4613Z" fill="#2B3352"/>
<path d="M413.947 314.279L399.932 311.047L409.739 300.526L413.947 314.279Z" fill="#2B3352"/>
<path d="M403.846 413.839L390.951 407.469L402.915 399.487L403.846 413.839Z" fill="#2B3352"/>
<path d="M389.455 18.8108L376.56 12.4416L388.523 4.45874L389.455 18.8108Z" fill="#2B3352"/>
<path d="M322.276 167.104L334.388 174.86L321.615 181.471L322.276 167.104Z" fill="#2B3352"/>
<path d="M268.254 265.148L272.126 278.999L258.194 275.427L268.254 265.148Z" fill="#2B3352"/>
<path d="M51.7975 396.906L60.861 408.073L46.6584 410.339L51.7975 396.906Z" fill="#2B3352"/>
<path d="M359.247 90.8493L365.233 103.927L350.914 102.571L359.247 90.8493Z" fill="#2B3352"/>
<path d="M16.0746 295.971L28.6705 302.913L16.3606 310.351L16.0746 295.971Z" fill="#2B3352"/>
<path d="M77.8368 221.932L91.1991 216.613L89.125 230.844L77.8368 221.932Z" fill="#2B3352"/>
<path d="M200.159 331.957L196.476 345.86L186.278 335.718L200.159 331.957Z" fill="#2B3352"/>
<rect x="381.301" y="156.147" width="59.3989" height="6.64288" rx="3.32144" transform="rotate(-45 381.301 156.147)" fill="url(#paint0_linear_42_1328)"/>
<rect x="71.4113" y="312.256" width="59.3989" height="6.64288" rx="3.32144" transform="rotate(-45 71.4113 312.256)" fill="url(#paint1_linear_42_1328)"/>
<rect x="110" y="434.001" width="59.3989" height="6.64288" rx="3.32144" transform="rotate(-45 110 434.001)" fill="url(#paint2_linear_42_1328)"/>
<rect y="160.964" width="59.3989" height="6.64288" rx="3.32144" transform="rotate(-45 0 160.964)" fill="url(#paint3_linear_42_1328)"/>
<rect x="309.558" y="71.6162" width="59.3989" height="6.64288" rx="3.32144" transform="rotate(-45 309.558 71.6162)" fill="url(#paint4_linear_42_1328)"/>
<rect x="74.4001" y="44.7129" width="59.3989" height="6.64288" rx="3.32144" transform="rotate(-45 74.4001 44.7129)" fill="url(#paint5_linear_42_1328)"/>
<rect x="296.497" y="443.726" width="59.3989" height="6.64288" rx="3.32144" transform="rotate(-45 296.497 443.726)" fill="url(#paint6_linear_42_1328)"/>
<rect x="152.787" y="124.095" width="59.3989" height="6.64288" rx="3.32144" transform="rotate(-45 152.787 124.095)" fill="url(#paint7_linear_42_1328)"/>
<rect x="209.17" y="218.732" width="59.3989" height="6.64288" rx="3.32144" transform="rotate(-45 209.17 218.732)" fill="url(#paint8_linear_42_1328)"/>
<rect x="326.29" y="298.867" width="59.3989" height="6.64288" rx="3.32144" transform="rotate(-45 326.29 298.867)" fill="url(#paint9_linear_42_1328)"/>
<circle cx="30.0897" cy="198.078" r="2.51119" fill="#9BA2BE"/>
<ellipse cx="342.848" cy="367.241" rx="2.51119" ry="2.2829" fill="#47DEFF"/>
<circle cx="63.4195" cy="109.958" r="2.51119" fill="#47DEFF"/>
<circle cx="279.154" cy="137.581" r="1.36974" fill="#9BA2BE"/>
<circle cx="265.458" cy="398.746" r="1.36974" fill="#ED80FF"/>
<circle cx="144.788" cy="193.51" r="1.36974" fill="#ED80FF"/>
<circle cx="205.873" cy="267.022" r="1.59803" fill="#BCFFA5"/>
<ellipse cx="129.853" cy="50.1456" rx="1.82632" ry="1.59803" fill="#BCFFA5"/>
<ellipse cx="211.016" cy="150.828" rx="1.82632" ry="1.59803" fill="#BCFFA5"/>
<circle cx="400.833" cy="241.453" r="1.59803" fill="#9BA2BE"/>
<circle cx="70.2688" cy="344.641" r="1.59803" fill="#FDFF93"/>
<circle cx="299.122" cy="215.313" r="1.59803" fill="#FDFF93"/>
<circle cx="394.441" cy="58.3646" r="1.59803" fill="#FDFF93"/>
<defs>
<linearGradient id="paint0_linear_42_1328" x1="381.301" y1="159.602" x2="440.7" y2="159.602" gradientUnits="userSpaceOnUse">
<stop stop-color="#2B3352"/>
<stop offset="1" stop-color="#343C5B" stop-opacity="0"/>
</linearGradient>
<linearGradient id="paint1_linear_42_1328" x1="71.4113" y1="315.71" x2="130.81" y2="315.71" gradientUnits="userSpaceOnUse">
<stop stop-color="#2B3352"/>
<stop offset="1" stop-color="#343C5B" stop-opacity="0"/>
</linearGradient>
<linearGradient id="paint2_linear_42_1328" x1="110" y1="437.455" x2="169.399" y2="437.455" gradientUnits="userSpaceOnUse">
<stop stop-color="#2B3352"/>
<stop offset="1" stop-color="#343C5B" stop-opacity="0"/>
</linearGradient>
<linearGradient id="paint3_linear_42_1328" x1="3.75133e-07" y1="164.419" x2="59.3989" y2="164.419" gradientUnits="userSpaceOnUse">
<stop stop-color="#2B3352"/>
<stop offset="1" stop-color="#343C5B" stop-opacity="0"/>
</linearGradient>
<linearGradient id="paint4_linear_42_1328" x1="309.558" y1="75.0705" x2="368.957" y2="75.0705" gradientUnits="userSpaceOnUse">
<stop stop-color="#2B3352"/>
<stop offset="1" stop-color="#343C5B" stop-opacity="0"/>
</linearGradient>
<linearGradient id="paint5_linear_42_1328" x1="74.4001" y1="48.1672" x2="133.799" y2="48.1672" gradientUnits="userSpaceOnUse">
<stop stop-color="#2B3352"/>
<stop offset="1" stop-color="#343C5B" stop-opacity="0"/>
</linearGradient>
<linearGradient id="paint6_linear_42_1328" x1="296.497" y1="447.18" x2="355.896" y2="447.18" gradientUnits="userSpaceOnUse">
<stop stop-color="#2B3352"/>
<stop offset="1" stop-color="#343C5B" stop-opacity="0"/>
</linearGradient>
<linearGradient id="paint7_linear_42_1328" x1="152.787" y1="127.55" x2="212.186" y2="127.55" gradientUnits="userSpaceOnUse">
<stop stop-color="#2B3352"/>
<stop offset="1" stop-color="#343C5B" stop-opacity="0"/>
</linearGradient>
<linearGradient id="paint8_linear_42_1328" x1="209.17" y1="222.186" x2="268.569" y2="222.186" gradientUnits="userSpaceOnUse">
<stop stop-color="#2B3352"/>
<stop offset="1" stop-color="#343C5B" stop-opacity="0"/>
</linearGradient>
<linearGradient id="paint9_linear_42_1328" x1="326.29" y1="302.321" x2="385.689" y2="302.321" gradientUnits="userSpaceOnUse">
<stop stop-color="#2B3352"/>
<stop offset="1" stop-color="#343C5B" stop-opacity="0"/>
</linearGradient>
</defs>
</svg>
