<svg width="65" height="66" viewBox="0 0 65 66" fill="none" xmlns="http://www.w3.org/2000/svg">
    <path d="M64.9998 32.3804C65.0408 45.5375 57.2122 57.4239 45.0798 62.5064C32.9474 67.5889 18.9706 64.8837 9.62538 55.6205C0.280169 46.3572 -2.54799 32.3804 2.41153 20.2071C7.37105 8.0337 19.2165 0.0820624 32.3326 8.68696e-05C50.3262 -0.0409009 64.9179 14.4278 64.9998 32.3804Z" fill="#EFEFEF"/>
    <path d="M62.5816 32.3804C62.6226 44.5538 55.3678 55.5385 44.1371 60.2521C32.9065 64.9657 19.9953 62.4245 11.3469 53.899C2.69851 45.3326 0.0752904 32.4214 4.66592 21.1908C9.25655 9.91916 20.2003 2.58235 32.3327 2.50038C48.9737 2.4184 62.4996 15.7804 62.5816 32.3804Z" fill="#3A405A"/>
    <path d="M33.0706 4.42708C34.997 4.09918 36.9234 4.09918 38.8498 4.42708C40.7763 4.71399 42.6617 5.3698 44.3832 6.27153C46.1047 7.21425 47.5802 8.48487 49.0558 9.67351C50.5313 10.8622 52.0069 12.0918 53.4005 13.4444C54.8351 14.756 56.0647 16.2725 57.0894 17.9121C58.1551 19.5516 59.0158 21.314 59.6716 23.1175C60.9422 26.8064 61.3521 30.7822 60.7373 34.5531H60.5324C59.9175 30.7822 59.0568 27.2163 57.7042 23.8143C57.0894 22.0928 56.3106 20.4123 55.4909 18.8138C54.5891 17.2153 53.6464 15.6167 52.5807 14.1412C51.515 12.6246 50.1624 11.272 48.6459 10.1654C47.1294 9.0587 45.3669 8.36191 43.6864 7.70611C42.0059 7.0503 40.2844 6.35351 38.5219 5.82067C36.7595 5.32881 34.956 4.91893 33.0706 4.55004V4.42708Z" fill="#EFEFEF"/>
    <path d="M47.744 21.7645C45.5717 21.1497 43.3174 20.2479 41.0221 19.3462C40.8991 18.7724 40.3662 18.0756 39.3416 17.1738C37.866 15.8622 35.0378 15.9032 32.6196 16.4771C29.9554 15.8622 27.2912 15.6163 24.7499 16.2311C3.96912 21.9694 15.7326 35.9052 8.10889 49.9641C9.17457 52.2594 20.8971 65.7034 37.825 62.0964C37.825 62.0964 32.0457 48.2016 45.1208 41.5206C55.7367 36.1102 63.3604 26.0272 47.744 21.7645Z" fill="#EFEFEF"/>
    <path d="M32.6199 16.4771C34.1364 16.6001 39.6288 18.3626 41.0224 19.3463C39.8337 15.9443 35.8989 15.4934 32.6199 16.4771Z" fill="#EFEFEF"/>
    <path d="M50.3263 30.9049C50.3263 32.0116 48.9737 32.5854 48.1949 31.8067C47.4161 31.0279 47.949 29.6753 49.0556 29.6343C49.7524 29.6753 50.3263 30.2081 50.3263 30.9049ZM34.0541 25.1257C34.0541 27.462 32.6195 29.5933 30.4472 30.495C28.2748 31.3968 25.7746 30.9049 24.0941 29.2244C22.4136 27.5439 21.9217 25.0437 22.8235 22.8713C23.7252 20.699 25.8566 19.2644 28.1929 19.2644C29.7504 19.2644 31.226 19.8792 32.2916 20.9449C33.4393 22.0926 34.0541 23.5681 34.0541 25.1257Z" fill="#3A405A"/>
    <path d="M32.3329 25.1666C32.3329 26.8061 31.3492 28.3227 29.7917 28.9375C28.2751 29.5523 26.5127 29.2244 25.324 28.0358C24.1354 26.8471 23.8075 25.1256 24.4223 23.5681C25.0371 22.0515 26.5536 21.0269 28.1932 21.0269C30.4885 21.0678 32.3329 22.9123 32.3329 25.1666Z" fill="#EFEFEF"/>
    <path d="M55.0401 33.487C50.3265 36.8071 44.9571 39.3073 37.3744 39.3073C33.8085 39.3073 33.1117 35.5364 30.7344 37.3809C29.5048 38.3236 25.242 40.455 21.8401 40.332C18.4381 40.168 12.9457 38.1596 11.4292 30.9458C10.8143 38.2006 10.5274 43.529 7.78125 49.6362C13.1916 58.3256 26.1028 65.0066 37.8253 62.1375C36.5547 53.3251 44.2604 44.7177 48.5641 40.332C50.2446 38.6105 53.4006 35.9053 55.0401 33.487Z" fill="#EFEFEF"/>
    <path d="M54.8352 33.6921C53.3596 35.0447 51.6381 36.0284 49.8757 36.8892C48.0722 37.7499 46.2278 38.4057 44.3013 38.9386C42.3749 39.4304 40.3665 39.7993 38.3581 39.6354C36.3087 39.4714 34.2593 38.7746 32.9067 37.2581L32.9887 37.1761C34.6282 38.2418 36.5546 38.6107 38.4401 38.6926C40.3665 38.7336 42.2929 38.6107 44.1784 38.2418C46.0638 37.8319 47.9492 37.2581 49.7527 36.5203C51.5562 35.7825 53.3186 34.9218 54.8762 33.6921H54.8352Z" fill="#3A405A"/>
</svg>