<svg width="152" height="152" viewBox="0 0 152 152" fill="none" xmlns="http://www.w3.org/2000/svg">
<mask id="mask0_420_229" style="mask-type:alpha" maskUnits="userSpaceOnUse" x="0" y="0" width="152" height="152">
<rect width="152" height="152" fill="#D9D9D9"/>
</mask>
<g mask="url(#mask0_420_229)">
<path fill-rule="evenodd" clip-rule="evenodd" d="M89.0188 53.8966C93.6471 51.5888 99.5363 48.1915 105.433 43.537C106.676 46.1187 106.812 48.3716 106.171 50.1907C105.717 51.4728 104.862 52.5879 103.737 53.475C102.519 54.4337 100.998 55.1318 99.3169 55.509C96.1265 56.2277 92.4014 55.8081 89.0188 53.8966ZM89.8212 77.543L95.9479 81.082C83.4383 88.0933 80.0376 101.112 75.9978 113.793C71.9586 101.112 68.5573 88.0933 56.0482 81.082L62.1749 77.543C62.7676 77.319 63.2742 76.9132 63.6221 76.3837C63.97 75.8541 64.1413 75.2281 64.1116 74.5952C63.5502 62.7195 66.7568 57.4678 71.082 54.1705C72.6334 52.9893 74.327 52.3962 75.9978 52.3962C77.6687 52.3962 79.3623 52.9893 80.9141 54.1705C85.2393 57.4678 88.4459 62.7195 87.8846 74.5952C87.8548 75.2281 88.0262 75.8541 88.3741 76.3837C88.722 76.9132 89.2286 77.319 89.8212 77.543ZM75.9978 0C83.0797 0.190136 90.1793 1.56496 96.3408 4.23947C100.608 6.09392 104.589 8.54349 108.194 11.4727C109.822 12.7951 111.162 14.0726 112.639 15.5432C116.622 15.6809 122.442 11.2563 125.145 7.11621C120.494 22.3624 99.2725 40.3667 84.5807 47.256C84.5746 47.2535 84.5706 47.25 84.566 47.2469C81.9293 45.2336 78.9638 44.2269 75.9978 44.2269C73.0318 44.2269 70.0668 45.2336 67.4301 47.2469C67.4256 47.2494 67.4216 47.254 67.4155 47.256C52.7231 40.3667 31.5021 22.3624 26.8516 7.11621C29.5533 11.2563 35.3739 15.6809 39.3566 15.5432C40.8338 14.0731 42.1744 12.7951 43.8019 11.4727C47.4069 8.54349 51.3881 6.09392 55.6548 4.23947C61.8168 1.56496 68.9164 0.190136 75.9978 0ZM62.9768 53.8966C58.349 51.5888 52.4593 48.1915 46.5636 43.537C45.3204 46.1187 45.1843 48.3716 45.8243 50.1907C46.2787 51.4728 47.134 52.5879 48.2582 53.475C49.4767 54.4337 50.9978 55.1318 52.6792 55.509C55.8697 56.2277 59.5942 55.8081 62.9768 53.8966Z" fill="white"/>
<path fill-rule="evenodd" clip-rule="evenodd" d="M111.892 37.8335C115.138 34.5578 117.998 30.9321 120.298 27.6968L121.466 29.8952C125.226 37.4184 127.18 44.9114 127.18 53.3439L127.172 66.725L127.243 73.6617C127.515 90.6912 131.2 107.921 139.546 123.689L122.083 109.606L109.726 129.658L96.7442 117.438L75.9998 151.102L55.2553 117.438L42.2742 129.659L29.9174 109.607L12.4531 123.689C20.7999 107.921 24.4846 90.6917 24.7575 73.6622L24.8281 66.7255L24.82 53.3444C24.82 44.9114 26.7733 37.4184 30.5347 29.8957L31.7022 27.6973C34.002 30.9326 36.8616 34.5578 40.108 37.834L39.0943 39.9396C37.1249 44.0293 36.4727 48.6021 38.0069 52.951C38.9959 55.7521 40.801 58.1543 43.128 59.9881C45.3874 61.7689 48.0614 62.9692 50.861 63.5996C52.6847 64.0102 54.5427 64.1791 56.3886 64.1216C55.9579 66.5631 55.7697 69.0954 55.7576 71.6756L39.2839 81.1904L51.9963 88.3162C53.0123 88.8859 53.9796 89.5385 54.8882 90.2675C65.3688 99.6775 71.67 127.515 76.0003 141.113C80.331 127.515 86.6317 99.6775 97.1129 90.2675C98.0214 89.5384 98.9886 88.8858 100.005 88.3162L112.717 81.1904L96.2429 71.6756C96.2308 69.0954 96.0427 66.5631 95.612 64.1216C97.4578 64.1791 99.3158 64.0102 101.14 63.5996C103.939 62.9692 106.614 61.7689 108.873 59.9881C111.199 58.1543 113.005 55.7521 113.993 52.951C115.528 48.6021 114.875 44.0298 112.906 39.9396L111.893 37.834L111.892 37.8335Z" fill="white"/>
</g>
</svg>
