<svg xmlns="http://www.w3.org/2000/svg" fill="none" viewBox="1 0 50 64.93"><path d="M31.2155 17.2349C25.4538 17.2349 20.7839 21.8905 20.7839 27.6335V64.9253H31.2155V31.3338C31.2155 30.8478 31.3116 30.3666 31.4981 29.9177C31.6847 29.4687 31.9582 29.0608 32.3029 28.7171C32.6477 28.3735 33.0569 28.101 33.5073 27.9151C33.9578 27.7291 34.4405 27.6335 34.928 27.6335H40.5683C46.33 27.6335 50.9999 22.9779 50.9999 17.2349H31.2179H31.2155Z" fill="url(#paint0_linear_47_2135)"/><path d="M23.9029 10.4221H33.3738C39.1356 10.4221 43.8055 5.76649 43.8055 0.0234375H23.9989C11.5449 0.0234375 1.16369 9.89944 0.999955 22.3136C0.837666 34.9274 11.0461 45.2035 23.6628 45.2035H33.3738C39.1356 45.2035 43.8055 40.5479 43.8055 34.8048H23.6628C16.9888 34.8048 11.5632 29.4748 11.435 22.8511C11.3029 16.0163 17.0455 10.4221 23.9029 10.4221Z" fill="url(#paint1_linear_47_2135)"/><g opacity="0.2"><path d="M34.4378 27.6421H25.9997C22.9508 27.6421 20.782 30.8905 20.782 30.8905V34.4654H31.2156V31.1586C31.2156 28.1432 34.4378 27.6421 34.4378 27.6421Z" fill="url(#paint2_linear_47_2135)"/></g><g opacity="0.2"><path d="M31.2156 48.7242V52.0316H20.782V48.4562C20.782 48.4562 22.9489 45.2078 25.9978 45.2078H31.2156V48.7242Z" fill="url(#paint3_linear_47_2135)"/></g><path opacity="0.4" d="M31.2314 34.7961C25.4696 34.7961 20.7997 39.4518 20.7997 45.1948L31.2314 34.7961Z" fill="url(#paint4_linear_47_2135)"/><path opacity="0.4" d="M31.2314 17.4221C25.4696 17.4221 20.7997 22.0777 20.7997 27.8208L31.2314 17.4221Z" fill="url(#paint5_linear_47_2135)"/><path opacity="0.8" d="M33.3796 10.3987C39.1413 10.3987 43.8112 5.74305 43.8112 0L33.3796 10.3987Z" fill="url(#paint6_linear_47_2135)"/><g opacity="0.2"><path d="M19.6896 11.1323C17.5103 12.0896 15.2637 12.8554 13.1597 13.9902C11.035 15.1389 9.03712 16.5748 7.49009 18.4242C5.0836 21.3022 3.73679 25.0657 2.55419 28.574C2.51146 28.7008 2.29251 29.7399 2.16479 29.7825L12.0558 26.4743C12.0558 26.4743 10.3119 22.0508 12.728 17.2367C14.1416 14.4258 16.7161 12.1757 19.6896 11.1323Z" fill="url(#paint7_linear_47_2135)"/></g><defs><linearGradient id="paint0_linear_47_2135" x1="51.0403" y1="19.1642" x2="21.8293" y2="48.4683" gradientUnits="userSpaceOnUse"><stop stop-color="#18B4CD"/><stop offset="0.5" stop-color="#4699DB"/><stop offset="1" stop-color="#797DEA"/></linearGradient><linearGradient id="paint1_linear_47_2135" x1="40.273" y1="8.43101" x2="11.062" y2="37.7351" gradientUnits="userSpaceOnUse"><stop stop-color="#18B4CD"/><stop offset="0.5" stop-color="#4699DB"/><stop offset="1" stop-color="#797DEA"/></linearGradient><linearGradient id="paint2_linear_47_2135" x1="27.6111" y1="28.0365" x2="27.6111" y2="34.5152" gradientUnits="userSpaceOnUse"><stop/><stop offset="1" stop-opacity="0"/></linearGradient><linearGradient id="paint3_linear_47_2135" x1="25.9997" y1="45.6022" x2="25.9997" y2="52.0809" gradientUnits="userSpaceOnUse"><stop/><stop offset="1" stop-opacity="0"/></linearGradient><linearGradient id="paint4_linear_47_2135" x1="22.2781" y1="35.405" x2="25.8717" y2="39.8468" gradientUnits="userSpaceOnUse"><stop stop-color="white"/><stop offset="1" stop-color="white" stop-opacity="0"/></linearGradient><linearGradient id="paint5_linear_47_2135" x1="22.2781" y1="18.0309" x2="25.8717" y2="22.4727" gradientUnits="userSpaceOnUse"><stop stop-color="white"/><stop offset="1" stop-color="white" stop-opacity="0"/></linearGradient><linearGradient id="paint6_linear_47_2135" x1="42.3329" y1="9.78985" x2="38.7393" y2="5.34806" gradientUnits="userSpaceOnUse"><stop stop-color="white"/><stop offset="1" stop-color="white" stop-opacity="0"/></linearGradient><linearGradient id="paint7_linear_47_2135" x1="11.5617" y1="15.4902" x2="10.1126" y2="26.9038" gradientUnits="userSpaceOnUse"><stop/><stop offset="1" stop-opacity="0"/></linearGradient></defs></svg>