<svg width="152" height="152" viewBox="0 0 152 152" fill="none" xmlns="http://www.w3.org/2000/svg">
<mask id="mask0_419_194" style="mask-type:luminance" maskUnits="userSpaceOnUse" x="0" y="0" width="152" height="152">
<path d="M152 0H0V152H152V0Z" fill="white"/>
</mask>
<g mask="url(#mask0_419_194)">
<g filter="url(#filter0_d_419_194)">
<path d="M14.5508 119.541C20.9157 128.474 29.0802 135.947 38.5089 141.473C47.9377 146.998 58.4173 150.45 69.2613 151.603C63.6823 143.133 55.5727 135.341 45.4487 129.408C35.3247 123.475 24.6033 120.234 14.5508 119.541Z" fill="white"/>
<path d="M59.0533 105.785C39.5486 94.3521 18.4376 91.4384 3.33203 96.5855C4.79029 101.448 6.71347 106.156 9.07451 110.644C22.1986 110.337 36.5279 113.933 49.8613 121.746C63.1949 129.56 73.393 140.343 79.6335 152C84.6692 151.844 89.6786 151.197 94.591 150.068C91.5368 134.282 78.5535 117.22 59.0533 105.785Z" fill="#F7F7F7"/>
<path d="M152.001 59.3793C149.521 49.2024 145.034 39.6341 138.807 31.2457C132.581 22.8572 124.743 15.8207 115.761 10.5562C106.78 5.29164 96.8388 1.90714 86.5325 0.604719C76.2256 -0.697703 65.7644 0.108678 55.7734 2.97571C72.4644 5.03657 90.9915 11.3583 109.161 22.0079C127.33 32.6574 141.964 45.762 152.001 59.3793Z" fill="#D4D4D4"/>
<path d="M127.717 96.7019C119.174 82.3869 104.538 68.6793 86.5088 58.1125C68.4798 47.5451 49.432 41.5093 32.889 41.11C18.335 40.7622 7.41181 45.0308 2.92815 52.8186C2.90261 52.8647 2.86687 52.9084 2.83878 52.9549C2.43535 54.4156 2.0881 55.8786 1.77148 57.3473C8.03228 54.8535 15.2863 53.4651 23.3523 53.3102C41.2894 52.9706 61.3636 58.759 79.8884 69.617C98.4126 80.4755 113.352 95.2081 121.942 111.092C125.792 118.248 128.195 125.294 129.147 132.025C130.255 131.026 131.343 129.993 132.398 128.919C132.426 128.87 132.444 128.818 132.472 128.767C136.955 120.972 135.221 109.286 127.717 96.7019Z" fill="#E5E5E5"/>
<path d="M72.7905 81.9305C45.1813 65.7477 14.6715 63.2126 0 74.5062C0.0288177 78.0412 0.296685 81.57 0.801742 85.0683C5.11759 83.7483 9.56565 82.9171 14.0638 82.5903C30.4588 81.3458 48.5338 85.9547 64.9366 95.5734C81.3389 105.193 94.2691 118.759 101.321 133.733C103.271 137.836 104.758 142.146 105.754 146.583C109.017 145.292 112.19 143.78 115.25 142.056C117.706 123.601 100.407 98.1161 72.7905 81.9305Z" fill="#EFEFEF"/>
<path d="M141.918 72.742C133.278 58.4421 118.514 44.696 100.357 34.0594C82.2005 23.4227 63.0783 17.2916 46.4818 16.7995C33.8301 16.4312 24.0304 19.525 18.9492 25.3702C40.0474 21.7637 67.8762 27.8252 94.8495 43.6347C121.823 59.4444 140.835 80.836 148.174 101.112C150.689 93.7679 148.5 83.6466 141.918 72.742Z" fill="#E0E0E0"/>
</g>
</g>
<defs>
<filter id="filter0_d_419_194" x="-22.7448" y="-20.4703" width="197.49" height="197.49" filterUnits="userSpaceOnUse" color-interpolation-filters="sRGB">
<feFlood flood-opacity="0" result="BackgroundImageFix"/>
<feColorMatrix in="SourceAlpha" type="matrix" values="0 0 0 0 0 0 0 0 0 0 0 0 0 0 0 0 0 0 127 0" result="hardAlpha"/>
<feOffset dy="2.27449"/>
<feGaussianBlur stdDeviation="11.3724"/>
<feComposite in2="hardAlpha" operator="out"/>
<feColorMatrix type="matrix" values="0 0 0 0 0 0 0 0 0 0 0 0 0 0 0 0 0 0 0.1 0"/>
<feBlend mode="normal" in2="BackgroundImageFix" result="effect1_dropShadow_419_194"/>
<feBlend mode="normal" in="SourceGraphic" in2="effect1_dropShadow_419_194" result="shape"/>
</filter>
</defs>
</svg>
