<svg width="40" height="40" viewBox="0 0 40 40" fill="none" xmlns="http://www.w3.org/2000/svg">
<path d="M0 0H32C36.4183 0 40 3.58172 40 8V40H0V0Z" fill="url(#paint0_linear_612_1150)"/>
<path d="M28.1028 12.8827C27.7978 12.5765 27.2978 12.5765 26.9928 12.8827L17.7592 22.114L13.0039 17.3262C12.6989 17.019 12.2022 17.019 11.8949 17.3262L10.2287 18.9913C9.92375 19.2952 9.92375 19.7953 10.2287 20.1014L17.1996 27.1182C17.5046 27.4221 18.0013 27.4221 18.3097 27.1182L29.7679 15.6589C30.0774 15.3528 30.0774 14.8516 29.7679 14.5444L28.1028 12.8827Z" fill="white"/>
<defs>
<linearGradient id="paint0_linear_612_1150" x1="-5.33333" y1="3.83568e-06" x2="53.2715" y2="3.82738" gradientUnits="userSpaceOnUse">
<stop stop-color="#09BECA"/>
<stop offset="1" stop-color="#9A68F3"/>
</linearGradient>
</defs>
</svg>
