<svg width="152" height="152" viewBox="0 0 152 152" fill="none" xmlns="http://www.w3.org/2000/svg">
<mask id="mask0_419_152" style="mask-type:alpha" maskUnits="userSpaceOnUse" x="0" y="0" width="152" height="152">
<rect width="152" height="152" fill="#D9D9D9"/>
</mask>
<g mask="url(#mask0_419_152)">
<path d="M134.201 57.1164V109.643L76.0757 143.375L17.9268 109.643V42.1793L76.0992 8.40022L120.769 34.3461L127.521 30.4413L76.0992 0.590576L11.1992 38.2509V113.548L76.0992 151.208L140.999 113.548V53.2116L134.201 57.1164Z" fill="white"/>
<path d="M59.8205 109.69H50.1055V76.8992H82.5202C85.5782 76.8757 88.5186 75.629 90.6827 73.4178C92.8468 71.2302 94.0465 68.2663 94.07 65.1847C94.0935 63.6557 93.7877 62.1503 93.1996 60.7389C92.6115 59.3275 91.7412 58.0573 90.6591 56.9987C89.6006 55.9167 88.3304 55.0463 86.9425 54.4582C85.5547 53.8702 84.0492 53.5644 82.5202 53.5879H50.1055V43.6141H82.5437C88.2127 43.6377 93.6701 45.9429 97.669 49.9653C101.691 54.0113 103.95 59.4686 103.997 65.1847C104.02 69.56 102.703 73.8177 100.209 77.3932C97.9042 80.804 94.6581 83.4856 90.8709 85.0852C87.1072 86.2849 83.2023 86.873 79.274 86.8494H59.8205V109.69Z" fill="white"/>
<path d="M103.762 108.867H92.4244L83.6738 93.5301C87.1317 93.3184 90.5425 92.6127 93.8122 91.4365L103.762 108.867Z" fill="#939393"/>
<path d="M127.426 46.2017L134.13 49.9419L140.834 46.2017V38.2744L134.13 34.3696L127.426 38.2744V46.2017Z" fill="#939393"/>
</g>
</svg>
