<svg width="152" height="152" viewBox="0 0 152 152" fill="none" xmlns="http://www.w3.org/2000/svg">
<circle cx="76" cy="76" r="29" fill="#939393"/>
<path fill-rule="evenodd" clip-rule="evenodd" d="M128.541 130.913C142.996 117.077 152 97.5901 152 76C152 34.0264 117.975 0 76 0C34.0254 0 0 34.0264 0 76C0 117.974 34.0254 152 76 152C90.8027 152 104.617 147.768 116.299 140.448C117.16 140.601 118.08 140.376 118.791 139.76L126 133.5L128.541 130.913ZM128.541 130.913L131.691 127.707C132.818 126.56 132.84 124.729 131.742 123.555L114.309 104.926C120.393 96.8818 124 86.8623 124 76C124 49.4904 102.51 28 76 28C49.4902 28 28 49.4904 28 76C28 102.51 49.4902 124 76 124C83.1426 124 89.9199 122.44 96.0098 119.643L114.633 139.544C115.094 140.036 115.682 140.339 116.299 140.448C120.703 137.688 124.805 134.49 128.541 130.913Z" fill="white"/>
</svg>
